M48
; DRILL file {KiCad (5.1.9)-1} date 10/14/21 23:18:01
; FORMAT={-:-/ absolute / metric / decimal}
; #@! TF.CreationDate,2021-10-14T23:18:01+02:00
; #@! TF.GenerationSoftware,Kicad,Pcbnew,(5.1.9)-1
; #@! TF.FileFunction,Plated,1,2,PTH
FMAT,2
METRIC
T1C1.400
T2C1.800
%
G90
G05
T1
X102.779Y-101.979
X106.429Y-101.979
X110.411Y-90.709
X114.061Y-90.709
X118.019Y-101.979
X121.669Y-101.979
X125.651Y-90.709
X129.301Y-90.709
X133.419Y-101.979
X137.069Y-101.979
X141.051Y-90.709
X144.701Y-90.709
X148.659Y-101.979
X152.309Y-101.979
X156.291Y-90.709
X159.941Y-90.709
T2
X102.779Y-110.949
X102.791Y-81.921
X106.589Y-110.949
X106.601Y-81.921
X110.399Y-110.949
X110.411Y-81.921
X114.209Y-110.949
X114.221Y-81.921
X118.019Y-110.949
X118.031Y-81.921
X121.829Y-110.949
X121.841Y-81.921
X125.639Y-110.949
X125.651Y-81.921
X129.449Y-110.949
X129.461Y-81.921
X133.259Y-110.949
X133.271Y-81.921
X137.069Y-110.949
X137.081Y-81.921
X140.879Y-110.949
X140.891Y-81.921
X144.689Y-110.949
X144.701Y-81.921
X148.499Y-110.949
X148.511Y-81.921
X152.309Y-110.949
X152.321Y-81.921
X156.119Y-110.949
X156.131Y-81.921
X159.929Y-110.949
X159.941Y-81.921
T0
M30
