%TF.GenerationSoftware,KiCad,Pcbnew,(5.1.9)-1*%
%TF.CreationDate,2021-10-06T03:15:32+02:00*%
%TF.ProjectId,SolenoidInterconnect,536f6c65-6e6f-4696-9449-6e746572636f,rev?*%
%TF.SameCoordinates,Original*%
%TF.FileFunction,Copper,L2,Bot*%
%TF.FilePolarity,Positive*%
%FSLAX46Y46*%
G04 Gerber Fmt 4.6, Leading zero omitted, Abs format (unit mm)*
G04 Created by KiCad (PCBNEW (5.1.9)-1) date 2021-10-06 03:15:32*
%MOMM*%
%LPD*%
G01*
G04 APERTURE LIST*
%TA.AperFunction,ComponentPad*%
%ADD10C,2.000000*%
%TD*%
%TA.AperFunction,ComponentPad*%
%ADD11C,3.000000*%
%TD*%
G04 APERTURE END LIST*
D10*
%TO.P,J1,1*%
%TO.N,/S1_1*%
X102779000Y-101979001D03*
%TO.P,J1,2*%
%TO.N,/S1_2*%
X106429005Y-101979001D03*
%TD*%
%TO.P,J2,2*%
%TO.N,/S2_2*%
X114061005Y-90709001D03*
%TO.P,J2,1*%
%TO.N,/S2_1*%
X110411000Y-90709001D03*
%TD*%
%TO.P,J3,1*%
%TO.N,/S3_1*%
X118019000Y-101979001D03*
%TO.P,J3,2*%
%TO.N,/S3_2*%
X121669005Y-101979001D03*
%TD*%
%TO.P,J4,2*%
%TO.N,/S4_2*%
X129301005Y-90709001D03*
%TO.P,J4,1*%
%TO.N,/S4_1*%
X125651000Y-90709001D03*
%TD*%
%TO.P,J6,1*%
%TO.N,/S5_1*%
X133418995Y-101979001D03*
%TO.P,J6,2*%
%TO.N,/S5_2*%
X137069000Y-101979001D03*
%TD*%
D11*
%TO.P,J7,1*%
%TO.N,/S1_1*%
X102779000Y-110949000D03*
%TO.P,J7,2*%
%TO.N,/S1_2*%
X106589000Y-110949000D03*
%TO.P,J7,3*%
%TO.N,/S2_1*%
X110399001Y-110949000D03*
%TO.P,J7,4*%
%TO.N,/S2_2*%
X114209001Y-110949000D03*
%TO.P,J7,5*%
%TO.N,/S3_1*%
X118019000Y-110949000D03*
%TO.P,J7,6*%
%TO.N,/S3_2*%
X121829000Y-110949000D03*
%TO.P,J7,7*%
%TO.N,/S4_1*%
X125638999Y-110949000D03*
%TO.P,J7,8*%
%TO.N,/S4_2*%
X129449000Y-110949000D03*
%TO.P,J7,9*%
%TO.N,/S5_1*%
X133258999Y-110949000D03*
%TO.P,J7,10*%
%TO.N,/S5_2*%
X137069000Y-110949000D03*
%TO.P,J7,11*%
%TO.N,/S6_1*%
X140878999Y-110949000D03*
%TO.P,J7,12*%
%TO.N,/S6_2*%
X144689000Y-110949000D03*
%TO.P,J7,13*%
%TO.N,/S7_1*%
X148499000Y-110949000D03*
%TO.P,J7,14*%
%TO.N,/S7_2*%
X152309000Y-110949000D03*
%TO.P,J7,15*%
%TO.N,/S8_1*%
X156119000Y-110949000D03*
%TO.P,J7,16*%
%TO.N,/S8_2*%
X159929000Y-110949000D03*
%TD*%
D10*
%TO.P,J8,2*%
%TO.N,/S6_2*%
X144701000Y-90709001D03*
%TO.P,J8,1*%
%TO.N,/S6_1*%
X141050995Y-90709001D03*
%TD*%
%TO.P,J9,1*%
%TO.N,/S7_1*%
X148658995Y-101979001D03*
%TO.P,J9,2*%
%TO.N,/S7_2*%
X152309000Y-101979001D03*
%TD*%
%TO.P,J10,2*%
%TO.N,/S8_2*%
X159941000Y-90709001D03*
%TO.P,J10,1*%
%TO.N,/S8_1*%
X156290995Y-90709001D03*
%TD*%
D11*
%TO.P,J5,1*%
%TO.N,/S8_2*%
X159941000Y-81921000D03*
%TO.P,J5,2*%
%TO.N,/S8_1*%
X156131000Y-81921000D03*
%TO.P,J5,3*%
%TO.N,/S7_2*%
X152320999Y-81921000D03*
%TO.P,J5,4*%
%TO.N,/S7_1*%
X148510999Y-81921000D03*
%TO.P,J5,5*%
%TO.N,/S6_2*%
X144701000Y-81921000D03*
%TO.P,J5,6*%
%TO.N,/S6_1*%
X140891000Y-81921000D03*
%TO.P,J5,7*%
%TO.N,/S5_2*%
X137081001Y-81921000D03*
%TO.P,J5,8*%
%TO.N,/S5_1*%
X133271000Y-81921000D03*
%TO.P,J5,9*%
%TO.N,/S4_2*%
X129461001Y-81921000D03*
%TO.P,J5,10*%
%TO.N,/S4_1*%
X125651000Y-81921000D03*
%TO.P,J5,11*%
%TO.N,/S3_2*%
X121841001Y-81921000D03*
%TO.P,J5,12*%
%TO.N,/S3_1*%
X118031000Y-81921000D03*
%TO.P,J5,13*%
%TO.N,/S2_2*%
X114221000Y-81921000D03*
%TO.P,J5,14*%
%TO.N,/S2_1*%
X110411000Y-81921000D03*
%TO.P,J5,15*%
%TO.N,/S1_2*%
X106601000Y-81921000D03*
%TO.P,J5,16*%
%TO.N,/S1_1*%
X102791000Y-81921000D03*
%TD*%
M02*
