G04 #@! TF.GenerationSoftware,KiCad,Pcbnew,(5.1.9)-1*
G04 #@! TF.CreationDate,2021-10-14T23:17:22+02:00*
G04 #@! TF.ProjectId,SolenoidInterconnect,536f6c65-6e6f-4696-9449-6e746572636f,rev?*
G04 #@! TF.SameCoordinates,Original*
G04 #@! TF.FileFunction,Legend,Bot*
G04 #@! TF.FilePolarity,Positive*
%FSLAX46Y46*%
G04 Gerber Fmt 4.6, Leading zero omitted, Abs format (unit mm)*
G04 Created by KiCad (PCBNEW (5.1.9)-1) date 2021-10-14 23:17:22*
%MOMM*%
%LPD*%
G01*
G04 APERTURE LIST*
%ADD10C,0.010000*%
G04 APERTURE END LIST*
D10*
G04 #@! TO.C,G\u002A\u002A\u002A*
G36*
X134347757Y-94625253D02*
G01*
X134209773Y-94776747D01*
X134061129Y-94939859D01*
X133904851Y-95111273D01*
X133743963Y-95287674D01*
X133581491Y-95465747D01*
X133420461Y-95642177D01*
X133263898Y-95813648D01*
X133114826Y-95976846D01*
X132976273Y-96128454D01*
X132851262Y-96265159D01*
X132831300Y-96286978D01*
X132714604Y-96414535D01*
X132596819Y-96543307D01*
X132479955Y-96671093D01*
X132366025Y-96795695D01*
X132257037Y-96914912D01*
X132155003Y-97026545D01*
X132061933Y-97128395D01*
X131979837Y-97218262D01*
X131910727Y-97293947D01*
X131856613Y-97353250D01*
X131853400Y-97356773D01*
X131786582Y-97429760D01*
X131725093Y-97496378D01*
X131671046Y-97554383D01*
X131626552Y-97601530D01*
X131593723Y-97635574D01*
X131574669Y-97654270D01*
X131570825Y-97657197D01*
X131569530Y-97644912D01*
X131568286Y-97608881D01*
X131567106Y-97550761D01*
X131566001Y-97472206D01*
X131564984Y-97374872D01*
X131564066Y-97260413D01*
X131563259Y-97130484D01*
X131562575Y-96986742D01*
X131562025Y-96830839D01*
X131561622Y-96664433D01*
X131561376Y-96489178D01*
X131561300Y-96320563D01*
X131561300Y-94982927D01*
X131531907Y-94955313D01*
X131519384Y-94944936D01*
X131504615Y-94937540D01*
X131483374Y-94932624D01*
X131451431Y-94929685D01*
X131404557Y-94928223D01*
X131338525Y-94927735D01*
X131299171Y-94927699D01*
X131222866Y-94927859D01*
X131167774Y-94928692D01*
X131129710Y-94930731D01*
X131104487Y-94934509D01*
X131087920Y-94940560D01*
X131075821Y-94949415D01*
X131068214Y-94957093D01*
X131040600Y-94986487D01*
X131040332Y-96884318D01*
X131040063Y-98782150D01*
X130531223Y-99340782D01*
X130439446Y-99441590D01*
X130352790Y-99536873D01*
X130272764Y-99624963D01*
X130200877Y-99704196D01*
X130138639Y-99772904D01*
X130087559Y-99829422D01*
X130049146Y-99872084D01*
X130024909Y-99899224D01*
X130016392Y-99909107D01*
X130025156Y-99913604D01*
X130053743Y-99916992D01*
X130096582Y-99918700D01*
X130110878Y-99918800D01*
X130211354Y-99918800D01*
X130700545Y-99382225D01*
X130786098Y-99288422D01*
X130878373Y-99187324D01*
X130978064Y-99078173D01*
X131085867Y-98960207D01*
X131202476Y-98832669D01*
X131328587Y-98694799D01*
X131464894Y-98545838D01*
X131612093Y-98385026D01*
X131770879Y-98211605D01*
X131941947Y-98024815D01*
X132125991Y-97823897D01*
X132323708Y-97608092D01*
X132535791Y-97376640D01*
X132762936Y-97128783D01*
X133005839Y-96863760D01*
X133265194Y-96580814D01*
X133275800Y-96569243D01*
X133764750Y-96035840D01*
X133771218Y-98691982D01*
X133805285Y-98727541D01*
X133839353Y-98763100D01*
X134036307Y-98763100D01*
X134110986Y-98762986D01*
X134164666Y-98762215D01*
X134201747Y-98760142D01*
X134226630Y-98756119D01*
X134243714Y-98749503D01*
X134257400Y-98739646D01*
X134268881Y-98728973D01*
X134304500Y-98694847D01*
X134305122Y-96795398D01*
X134305744Y-94895950D01*
X134781922Y-94375250D01*
X134872498Y-94276132D01*
X134959294Y-94181011D01*
X135040539Y-94091836D01*
X135114461Y-94010559D01*
X135179290Y-93939130D01*
X135233252Y-93879501D01*
X135274578Y-93833622D01*
X135301495Y-93803444D01*
X135309533Y-93794225D01*
X135360966Y-93733900D01*
X135159364Y-93733900D01*
X134347757Y-94625253D01*
G37*
X134347757Y-94625253D02*
X134209773Y-94776747D01*
X134061129Y-94939859D01*
X133904851Y-95111273D01*
X133743963Y-95287674D01*
X133581491Y-95465747D01*
X133420461Y-95642177D01*
X133263898Y-95813648D01*
X133114826Y-95976846D01*
X132976273Y-96128454D01*
X132851262Y-96265159D01*
X132831300Y-96286978D01*
X132714604Y-96414535D01*
X132596819Y-96543307D01*
X132479955Y-96671093D01*
X132366025Y-96795695D01*
X132257037Y-96914912D01*
X132155003Y-97026545D01*
X132061933Y-97128395D01*
X131979837Y-97218262D01*
X131910727Y-97293947D01*
X131856613Y-97353250D01*
X131853400Y-97356773D01*
X131786582Y-97429760D01*
X131725093Y-97496378D01*
X131671046Y-97554383D01*
X131626552Y-97601530D01*
X131593723Y-97635574D01*
X131574669Y-97654270D01*
X131570825Y-97657197D01*
X131569530Y-97644912D01*
X131568286Y-97608881D01*
X131567106Y-97550761D01*
X131566001Y-97472206D01*
X131564984Y-97374872D01*
X131564066Y-97260413D01*
X131563259Y-97130484D01*
X131562575Y-96986742D01*
X131562025Y-96830839D01*
X131561622Y-96664433D01*
X131561376Y-96489178D01*
X131561300Y-96320563D01*
X131561300Y-94982927D01*
X131531907Y-94955313D01*
X131519384Y-94944936D01*
X131504615Y-94937540D01*
X131483374Y-94932624D01*
X131451431Y-94929685D01*
X131404557Y-94928223D01*
X131338525Y-94927735D01*
X131299171Y-94927699D01*
X131222866Y-94927859D01*
X131167774Y-94928692D01*
X131129710Y-94930731D01*
X131104487Y-94934509D01*
X131087920Y-94940560D01*
X131075821Y-94949415D01*
X131068214Y-94957093D01*
X131040600Y-94986487D01*
X131040332Y-96884318D01*
X131040063Y-98782150D01*
X130531223Y-99340782D01*
X130439446Y-99441590D01*
X130352790Y-99536873D01*
X130272764Y-99624963D01*
X130200877Y-99704196D01*
X130138639Y-99772904D01*
X130087559Y-99829422D01*
X130049146Y-99872084D01*
X130024909Y-99899224D01*
X130016392Y-99909107D01*
X130025156Y-99913604D01*
X130053743Y-99916992D01*
X130096582Y-99918700D01*
X130110878Y-99918800D01*
X130211354Y-99918800D01*
X130700545Y-99382225D01*
X130786098Y-99288422D01*
X130878373Y-99187324D01*
X130978064Y-99078173D01*
X131085867Y-98960207D01*
X131202476Y-98832669D01*
X131328587Y-98694799D01*
X131464894Y-98545838D01*
X131612093Y-98385026D01*
X131770879Y-98211605D01*
X131941947Y-98024815D01*
X132125991Y-97823897D01*
X132323708Y-97608092D01*
X132535791Y-97376640D01*
X132762936Y-97128783D01*
X133005839Y-96863760D01*
X133265194Y-96580814D01*
X133275800Y-96569243D01*
X133764750Y-96035840D01*
X133771218Y-98691982D01*
X133805285Y-98727541D01*
X133839353Y-98763100D01*
X134036307Y-98763100D01*
X134110986Y-98762986D01*
X134164666Y-98762215D01*
X134201747Y-98760142D01*
X134226630Y-98756119D01*
X134243714Y-98749503D01*
X134257400Y-98739646D01*
X134268881Y-98728973D01*
X134304500Y-98694847D01*
X134305122Y-96795398D01*
X134305744Y-94895950D01*
X134781922Y-94375250D01*
X134872498Y-94276132D01*
X134959294Y-94181011D01*
X135040539Y-94091836D01*
X135114461Y-94010559D01*
X135179290Y-93939130D01*
X135233252Y-93879501D01*
X135274578Y-93833622D01*
X135301495Y-93803444D01*
X135309533Y-93794225D01*
X135360966Y-93733900D01*
X135159364Y-93733900D01*
X134347757Y-94625253D01*
G36*
X138637924Y-94874785D02*
G01*
X138532718Y-94880335D01*
X138432981Y-94889991D01*
X138347239Y-94903247D01*
X138324309Y-94908129D01*
X138201441Y-94944706D01*
X138073375Y-94997435D01*
X137950169Y-95062159D01*
X137946566Y-95064293D01*
X137897608Y-95095260D01*
X137844359Y-95131955D01*
X137790953Y-95171146D01*
X137741524Y-95209603D01*
X137700205Y-95244095D01*
X137671132Y-95271392D01*
X137658437Y-95288263D01*
X137658201Y-95289650D01*
X137666053Y-95303114D01*
X137687866Y-95332146D01*
X137720839Y-95373229D01*
X137762172Y-95422843D01*
X137792129Y-95457925D01*
X137842579Y-95516088D01*
X137879898Y-95557626D01*
X137907339Y-95585326D01*
X137928154Y-95601971D01*
X137945597Y-95610346D01*
X137962920Y-95613238D01*
X137973834Y-95613500D01*
X138003754Y-95610002D01*
X138034354Y-95597280D01*
X138072285Y-95571985D01*
X138101443Y-95549291D01*
X138224076Y-95464687D01*
X138352927Y-95403545D01*
X138490677Y-95364944D01*
X138640006Y-95347966D01*
X138691207Y-95346950D01*
X138819982Y-95353865D01*
X138930653Y-95375166D01*
X139026876Y-95412132D01*
X139112305Y-95466045D01*
X139166530Y-95513463D01*
X139241141Y-95601864D01*
X139293318Y-95697123D01*
X139323031Y-95796430D01*
X139330254Y-95896976D01*
X139314955Y-95995950D01*
X139277108Y-96090541D01*
X139216684Y-96177941D01*
X139173760Y-96221978D01*
X139138546Y-96252529D01*
X139101648Y-96280550D01*
X139060090Y-96307558D01*
X139010895Y-96335069D01*
X138951087Y-96364601D01*
X138877690Y-96397669D01*
X138787726Y-96435790D01*
X138678221Y-96480480D01*
X138622500Y-96502848D01*
X138444528Y-96575870D01*
X138289124Y-96643945D01*
X138154264Y-96708485D01*
X138037924Y-96770902D01*
X137938082Y-96832607D01*
X137852713Y-96895013D01*
X137779795Y-96959531D01*
X137717304Y-97027573D01*
X137663215Y-97100551D01*
X137615507Y-97179877D01*
X137594565Y-97220050D01*
X137558202Y-97299187D01*
X137531987Y-97373366D01*
X137514539Y-97449363D01*
X137504479Y-97533954D01*
X137500427Y-97633917D01*
X137500190Y-97683600D01*
X137500953Y-97760860D01*
X137503244Y-97819672D01*
X137507872Y-97866976D01*
X137515647Y-97909711D01*
X137527379Y-97954819D01*
X137534731Y-97979604D01*
X137595958Y-98139221D01*
X137677776Y-98284760D01*
X137778949Y-98415134D01*
X137898241Y-98529257D01*
X138034415Y-98626041D01*
X138186238Y-98704400D01*
X138352471Y-98763248D01*
X138453660Y-98787737D01*
X138550101Y-98802191D01*
X138662372Y-98810609D01*
X138781607Y-98812895D01*
X138898940Y-98808951D01*
X139005505Y-98798679D01*
X139035250Y-98794147D01*
X139185155Y-98761184D01*
X139335546Y-98713890D01*
X139480076Y-98654867D01*
X139612397Y-98586718D01*
X139726161Y-98512045D01*
X139729429Y-98509573D01*
X139764218Y-98480948D01*
X139807210Y-98442294D01*
X139855036Y-98397035D01*
X139904327Y-98348596D01*
X139951713Y-98300402D01*
X139993824Y-98255877D01*
X140027292Y-98218448D01*
X140048748Y-98191538D01*
X140054901Y-98178744D01*
X140044393Y-98167861D01*
X140017627Y-98143679D01*
X139977911Y-98109091D01*
X139928558Y-98066991D01*
X139888658Y-98033438D01*
X139828683Y-97983503D01*
X139784515Y-97947773D01*
X139752548Y-97924077D01*
X139729173Y-97910243D01*
X139710784Y-97904100D01*
X139693772Y-97903476D01*
X139676647Y-97905842D01*
X139640376Y-97917070D01*
X139608093Y-97940737D01*
X139579986Y-97971844D01*
X139516557Y-98038023D01*
X139435101Y-98105841D01*
X139342156Y-98170465D01*
X139244257Y-98227065D01*
X139214803Y-98241804D01*
X139118918Y-98284918D01*
X139033945Y-98315248D01*
X138951176Y-98334783D01*
X138861905Y-98345511D01*
X138757425Y-98349421D01*
X138743150Y-98349528D01*
X138669236Y-98349212D01*
X138613498Y-98346861D01*
X138568740Y-98341650D01*
X138527768Y-98332752D01*
X138484990Y-98319865D01*
X138361089Y-98267157D01*
X138254271Y-98196355D01*
X138165622Y-98108645D01*
X138096224Y-98005209D01*
X138047161Y-97887233D01*
X138030622Y-97823300D01*
X138015866Y-97701599D01*
X138024954Y-97588533D01*
X138058049Y-97483549D01*
X138115313Y-97386095D01*
X138182387Y-97309477D01*
X138221131Y-97274512D01*
X138265350Y-97241041D01*
X138317619Y-97207766D01*
X138380514Y-97173387D01*
X138456608Y-97136607D01*
X138548477Y-97096125D01*
X138658696Y-97050644D01*
X138789840Y-96998865D01*
X138825700Y-96984976D01*
X138955014Y-96934435D01*
X139063522Y-96890552D01*
X139154479Y-96851837D01*
X139231140Y-96816803D01*
X139296759Y-96783964D01*
X139354590Y-96751831D01*
X139407886Y-96718917D01*
X139408202Y-96718713D01*
X139528901Y-96626959D01*
X139634047Y-96519628D01*
X139721287Y-96400025D01*
X139788264Y-96271456D01*
X139832623Y-96137227D01*
X139837270Y-96116384D01*
X139849090Y-96035875D01*
X139854886Y-95942792D01*
X139854715Y-95846124D01*
X139848636Y-95754855D01*
X139836706Y-95677972D01*
X139834394Y-95668149D01*
X139785592Y-95523410D01*
X139714994Y-95389310D01*
X139624506Y-95267347D01*
X139516028Y-95159020D01*
X139391465Y-95065827D01*
X139252719Y-94989265D01*
X139101693Y-94930832D01*
X138940291Y-94892027D01*
X138830636Y-94878032D01*
X138740072Y-94873848D01*
X138637924Y-94874785D01*
G37*
X138637924Y-94874785D02*
X138532718Y-94880335D01*
X138432981Y-94889991D01*
X138347239Y-94903247D01*
X138324309Y-94908129D01*
X138201441Y-94944706D01*
X138073375Y-94997435D01*
X137950169Y-95062159D01*
X137946566Y-95064293D01*
X137897608Y-95095260D01*
X137844359Y-95131955D01*
X137790953Y-95171146D01*
X137741524Y-95209603D01*
X137700205Y-95244095D01*
X137671132Y-95271392D01*
X137658437Y-95288263D01*
X137658201Y-95289650D01*
X137666053Y-95303114D01*
X137687866Y-95332146D01*
X137720839Y-95373229D01*
X137762172Y-95422843D01*
X137792129Y-95457925D01*
X137842579Y-95516088D01*
X137879898Y-95557626D01*
X137907339Y-95585326D01*
X137928154Y-95601971D01*
X137945597Y-95610346D01*
X137962920Y-95613238D01*
X137973834Y-95613500D01*
X138003754Y-95610002D01*
X138034354Y-95597280D01*
X138072285Y-95571985D01*
X138101443Y-95549291D01*
X138224076Y-95464687D01*
X138352927Y-95403545D01*
X138490677Y-95364944D01*
X138640006Y-95347966D01*
X138691207Y-95346950D01*
X138819982Y-95353865D01*
X138930653Y-95375166D01*
X139026876Y-95412132D01*
X139112305Y-95466045D01*
X139166530Y-95513463D01*
X139241141Y-95601864D01*
X139293318Y-95697123D01*
X139323031Y-95796430D01*
X139330254Y-95896976D01*
X139314955Y-95995950D01*
X139277108Y-96090541D01*
X139216684Y-96177941D01*
X139173760Y-96221978D01*
X139138546Y-96252529D01*
X139101648Y-96280550D01*
X139060090Y-96307558D01*
X139010895Y-96335069D01*
X138951087Y-96364601D01*
X138877690Y-96397669D01*
X138787726Y-96435790D01*
X138678221Y-96480480D01*
X138622500Y-96502848D01*
X138444528Y-96575870D01*
X138289124Y-96643945D01*
X138154264Y-96708485D01*
X138037924Y-96770902D01*
X137938082Y-96832607D01*
X137852713Y-96895013D01*
X137779795Y-96959531D01*
X137717304Y-97027573D01*
X137663215Y-97100551D01*
X137615507Y-97179877D01*
X137594565Y-97220050D01*
X137558202Y-97299187D01*
X137531987Y-97373366D01*
X137514539Y-97449363D01*
X137504479Y-97533954D01*
X137500427Y-97633917D01*
X137500190Y-97683600D01*
X137500953Y-97760860D01*
X137503244Y-97819672D01*
X137507872Y-97866976D01*
X137515647Y-97909711D01*
X137527379Y-97954819D01*
X137534731Y-97979604D01*
X137595958Y-98139221D01*
X137677776Y-98284760D01*
X137778949Y-98415134D01*
X137898241Y-98529257D01*
X138034415Y-98626041D01*
X138186238Y-98704400D01*
X138352471Y-98763248D01*
X138453660Y-98787737D01*
X138550101Y-98802191D01*
X138662372Y-98810609D01*
X138781607Y-98812895D01*
X138898940Y-98808951D01*
X139005505Y-98798679D01*
X139035250Y-98794147D01*
X139185155Y-98761184D01*
X139335546Y-98713890D01*
X139480076Y-98654867D01*
X139612397Y-98586718D01*
X139726161Y-98512045D01*
X139729429Y-98509573D01*
X139764218Y-98480948D01*
X139807210Y-98442294D01*
X139855036Y-98397035D01*
X139904327Y-98348596D01*
X139951713Y-98300402D01*
X139993824Y-98255877D01*
X140027292Y-98218448D01*
X140048748Y-98191538D01*
X140054901Y-98178744D01*
X140044393Y-98167861D01*
X140017627Y-98143679D01*
X139977911Y-98109091D01*
X139928558Y-98066991D01*
X139888658Y-98033438D01*
X139828683Y-97983503D01*
X139784515Y-97947773D01*
X139752548Y-97924077D01*
X139729173Y-97910243D01*
X139710784Y-97904100D01*
X139693772Y-97903476D01*
X139676647Y-97905842D01*
X139640376Y-97917070D01*
X139608093Y-97940737D01*
X139579986Y-97971844D01*
X139516557Y-98038023D01*
X139435101Y-98105841D01*
X139342156Y-98170465D01*
X139244257Y-98227065D01*
X139214803Y-98241804D01*
X139118918Y-98284918D01*
X139033945Y-98315248D01*
X138951176Y-98334783D01*
X138861905Y-98345511D01*
X138757425Y-98349421D01*
X138743150Y-98349528D01*
X138669236Y-98349212D01*
X138613498Y-98346861D01*
X138568740Y-98341650D01*
X138527768Y-98332752D01*
X138484990Y-98319865D01*
X138361089Y-98267157D01*
X138254271Y-98196355D01*
X138165622Y-98108645D01*
X138096224Y-98005209D01*
X138047161Y-97887233D01*
X138030622Y-97823300D01*
X138015866Y-97701599D01*
X138024954Y-97588533D01*
X138058049Y-97483549D01*
X138115313Y-97386095D01*
X138182387Y-97309477D01*
X138221131Y-97274512D01*
X138265350Y-97241041D01*
X138317619Y-97207766D01*
X138380514Y-97173387D01*
X138456608Y-97136607D01*
X138548477Y-97096125D01*
X138658696Y-97050644D01*
X138789840Y-96998865D01*
X138825700Y-96984976D01*
X138955014Y-96934435D01*
X139063522Y-96890552D01*
X139154479Y-96851837D01*
X139231140Y-96816803D01*
X139296759Y-96783964D01*
X139354590Y-96751831D01*
X139407886Y-96718917D01*
X139408202Y-96718713D01*
X139528901Y-96626959D01*
X139634047Y-96519628D01*
X139721287Y-96400025D01*
X139788264Y-96271456D01*
X139832623Y-96137227D01*
X139837270Y-96116384D01*
X139849090Y-96035875D01*
X139854886Y-95942792D01*
X139854715Y-95846124D01*
X139848636Y-95754855D01*
X139836706Y-95677972D01*
X139834394Y-95668149D01*
X139785592Y-95523410D01*
X139714994Y-95389310D01*
X139624506Y-95267347D01*
X139516028Y-95159020D01*
X139391465Y-95065827D01*
X139252719Y-94989265D01*
X139101693Y-94930832D01*
X138940291Y-94892027D01*
X138830636Y-94878032D01*
X138740072Y-94873848D01*
X138637924Y-94874785D01*
G36*
X129316124Y-94874785D02*
G01*
X129210918Y-94880335D01*
X129111181Y-94889991D01*
X129025439Y-94903247D01*
X129002509Y-94908129D01*
X128879641Y-94944706D01*
X128751575Y-94997435D01*
X128628369Y-95062159D01*
X128624766Y-95064293D01*
X128575808Y-95095260D01*
X128522559Y-95131955D01*
X128469153Y-95171146D01*
X128419724Y-95209603D01*
X128378405Y-95244095D01*
X128349332Y-95271392D01*
X128336637Y-95288263D01*
X128336401Y-95289650D01*
X128344253Y-95303114D01*
X128366066Y-95332146D01*
X128399039Y-95373229D01*
X128440372Y-95422843D01*
X128470329Y-95457925D01*
X128520779Y-95516088D01*
X128558098Y-95557626D01*
X128585539Y-95585326D01*
X128606354Y-95601971D01*
X128623797Y-95610346D01*
X128641120Y-95613238D01*
X128652034Y-95613500D01*
X128681954Y-95610002D01*
X128712554Y-95597280D01*
X128750485Y-95571985D01*
X128779643Y-95549291D01*
X128902276Y-95464687D01*
X129031127Y-95403545D01*
X129168877Y-95364944D01*
X129318206Y-95347966D01*
X129369407Y-95346950D01*
X129498182Y-95353865D01*
X129608853Y-95375166D01*
X129705076Y-95412132D01*
X129790505Y-95466045D01*
X129844730Y-95513463D01*
X129919341Y-95601864D01*
X129971518Y-95697123D01*
X130001231Y-95796430D01*
X130008454Y-95896976D01*
X129993155Y-95995950D01*
X129955308Y-96090541D01*
X129894884Y-96177941D01*
X129851960Y-96221978D01*
X129816746Y-96252529D01*
X129779848Y-96280550D01*
X129738290Y-96307558D01*
X129689095Y-96335069D01*
X129629287Y-96364601D01*
X129555890Y-96397669D01*
X129465926Y-96435790D01*
X129356421Y-96480480D01*
X129300700Y-96502848D01*
X129122728Y-96575870D01*
X128967324Y-96643945D01*
X128832464Y-96708485D01*
X128716124Y-96770902D01*
X128616282Y-96832607D01*
X128530913Y-96895013D01*
X128457995Y-96959531D01*
X128395504Y-97027573D01*
X128341415Y-97100551D01*
X128293707Y-97179877D01*
X128272765Y-97220050D01*
X128236402Y-97299187D01*
X128210187Y-97373366D01*
X128192739Y-97449363D01*
X128182679Y-97533954D01*
X128178627Y-97633917D01*
X128178390Y-97683600D01*
X128179153Y-97760860D01*
X128181444Y-97819672D01*
X128186072Y-97866976D01*
X128193847Y-97909711D01*
X128205579Y-97954819D01*
X128212931Y-97979604D01*
X128274158Y-98139221D01*
X128355976Y-98284760D01*
X128457149Y-98415134D01*
X128576441Y-98529257D01*
X128712615Y-98626041D01*
X128864438Y-98704400D01*
X129030671Y-98763248D01*
X129131860Y-98787737D01*
X129228301Y-98802191D01*
X129340572Y-98810609D01*
X129459807Y-98812895D01*
X129577140Y-98808951D01*
X129683705Y-98798679D01*
X129713450Y-98794147D01*
X129863355Y-98761184D01*
X130013746Y-98713890D01*
X130158276Y-98654867D01*
X130290597Y-98586718D01*
X130404361Y-98512045D01*
X130407629Y-98509573D01*
X130442418Y-98480948D01*
X130485410Y-98442294D01*
X130533236Y-98397035D01*
X130582527Y-98348596D01*
X130629913Y-98300402D01*
X130672024Y-98255877D01*
X130705492Y-98218448D01*
X130726948Y-98191538D01*
X130733101Y-98178744D01*
X130722593Y-98167861D01*
X130695827Y-98143679D01*
X130656111Y-98109091D01*
X130606758Y-98066991D01*
X130566858Y-98033438D01*
X130506883Y-97983503D01*
X130462715Y-97947773D01*
X130430748Y-97924077D01*
X130407373Y-97910243D01*
X130388984Y-97904100D01*
X130371972Y-97903476D01*
X130354847Y-97905842D01*
X130318576Y-97917070D01*
X130286293Y-97940737D01*
X130258186Y-97971844D01*
X130194757Y-98038023D01*
X130113301Y-98105841D01*
X130020356Y-98170465D01*
X129922457Y-98227065D01*
X129893003Y-98241804D01*
X129797118Y-98284918D01*
X129712145Y-98315248D01*
X129629376Y-98334783D01*
X129540105Y-98345511D01*
X129435625Y-98349421D01*
X129421350Y-98349528D01*
X129347436Y-98349212D01*
X129291698Y-98346861D01*
X129246940Y-98341650D01*
X129205968Y-98332752D01*
X129163190Y-98319865D01*
X129039289Y-98267157D01*
X128932471Y-98196355D01*
X128843822Y-98108645D01*
X128774424Y-98005209D01*
X128725361Y-97887233D01*
X128708822Y-97823300D01*
X128694066Y-97701599D01*
X128703154Y-97588533D01*
X128736249Y-97483549D01*
X128793513Y-97386095D01*
X128860587Y-97309477D01*
X128899331Y-97274512D01*
X128943550Y-97241041D01*
X128995819Y-97207766D01*
X129058714Y-97173387D01*
X129134808Y-97136607D01*
X129226677Y-97096125D01*
X129336896Y-97050644D01*
X129468040Y-96998865D01*
X129503900Y-96984976D01*
X129633214Y-96934435D01*
X129741722Y-96890552D01*
X129832679Y-96851837D01*
X129909340Y-96816803D01*
X129974959Y-96783964D01*
X130032790Y-96751831D01*
X130086086Y-96718917D01*
X130086402Y-96718713D01*
X130207101Y-96626959D01*
X130312247Y-96519628D01*
X130399487Y-96400025D01*
X130466464Y-96271456D01*
X130510823Y-96137227D01*
X130515470Y-96116384D01*
X130527290Y-96035875D01*
X130533086Y-95942792D01*
X130532915Y-95846124D01*
X130526836Y-95754855D01*
X130514906Y-95677972D01*
X130512594Y-95668149D01*
X130463792Y-95523410D01*
X130393194Y-95389310D01*
X130302706Y-95267347D01*
X130194228Y-95159020D01*
X130069665Y-95065827D01*
X129930919Y-94989265D01*
X129779893Y-94930832D01*
X129618491Y-94892027D01*
X129508836Y-94878032D01*
X129418272Y-94873848D01*
X129316124Y-94874785D01*
G37*
X129316124Y-94874785D02*
X129210918Y-94880335D01*
X129111181Y-94889991D01*
X129025439Y-94903247D01*
X129002509Y-94908129D01*
X128879641Y-94944706D01*
X128751575Y-94997435D01*
X128628369Y-95062159D01*
X128624766Y-95064293D01*
X128575808Y-95095260D01*
X128522559Y-95131955D01*
X128469153Y-95171146D01*
X128419724Y-95209603D01*
X128378405Y-95244095D01*
X128349332Y-95271392D01*
X128336637Y-95288263D01*
X128336401Y-95289650D01*
X128344253Y-95303114D01*
X128366066Y-95332146D01*
X128399039Y-95373229D01*
X128440372Y-95422843D01*
X128470329Y-95457925D01*
X128520779Y-95516088D01*
X128558098Y-95557626D01*
X128585539Y-95585326D01*
X128606354Y-95601971D01*
X128623797Y-95610346D01*
X128641120Y-95613238D01*
X128652034Y-95613500D01*
X128681954Y-95610002D01*
X128712554Y-95597280D01*
X128750485Y-95571985D01*
X128779643Y-95549291D01*
X128902276Y-95464687D01*
X129031127Y-95403545D01*
X129168877Y-95364944D01*
X129318206Y-95347966D01*
X129369407Y-95346950D01*
X129498182Y-95353865D01*
X129608853Y-95375166D01*
X129705076Y-95412132D01*
X129790505Y-95466045D01*
X129844730Y-95513463D01*
X129919341Y-95601864D01*
X129971518Y-95697123D01*
X130001231Y-95796430D01*
X130008454Y-95896976D01*
X129993155Y-95995950D01*
X129955308Y-96090541D01*
X129894884Y-96177941D01*
X129851960Y-96221978D01*
X129816746Y-96252529D01*
X129779848Y-96280550D01*
X129738290Y-96307558D01*
X129689095Y-96335069D01*
X129629287Y-96364601D01*
X129555890Y-96397669D01*
X129465926Y-96435790D01*
X129356421Y-96480480D01*
X129300700Y-96502848D01*
X129122728Y-96575870D01*
X128967324Y-96643945D01*
X128832464Y-96708485D01*
X128716124Y-96770902D01*
X128616282Y-96832607D01*
X128530913Y-96895013D01*
X128457995Y-96959531D01*
X128395504Y-97027573D01*
X128341415Y-97100551D01*
X128293707Y-97179877D01*
X128272765Y-97220050D01*
X128236402Y-97299187D01*
X128210187Y-97373366D01*
X128192739Y-97449363D01*
X128182679Y-97533954D01*
X128178627Y-97633917D01*
X128178390Y-97683600D01*
X128179153Y-97760860D01*
X128181444Y-97819672D01*
X128186072Y-97866976D01*
X128193847Y-97909711D01*
X128205579Y-97954819D01*
X128212931Y-97979604D01*
X128274158Y-98139221D01*
X128355976Y-98284760D01*
X128457149Y-98415134D01*
X128576441Y-98529257D01*
X128712615Y-98626041D01*
X128864438Y-98704400D01*
X129030671Y-98763248D01*
X129131860Y-98787737D01*
X129228301Y-98802191D01*
X129340572Y-98810609D01*
X129459807Y-98812895D01*
X129577140Y-98808951D01*
X129683705Y-98798679D01*
X129713450Y-98794147D01*
X129863355Y-98761184D01*
X130013746Y-98713890D01*
X130158276Y-98654867D01*
X130290597Y-98586718D01*
X130404361Y-98512045D01*
X130407629Y-98509573D01*
X130442418Y-98480948D01*
X130485410Y-98442294D01*
X130533236Y-98397035D01*
X130582527Y-98348596D01*
X130629913Y-98300402D01*
X130672024Y-98255877D01*
X130705492Y-98218448D01*
X130726948Y-98191538D01*
X130733101Y-98178744D01*
X130722593Y-98167861D01*
X130695827Y-98143679D01*
X130656111Y-98109091D01*
X130606758Y-98066991D01*
X130566858Y-98033438D01*
X130506883Y-97983503D01*
X130462715Y-97947773D01*
X130430748Y-97924077D01*
X130407373Y-97910243D01*
X130388984Y-97904100D01*
X130371972Y-97903476D01*
X130354847Y-97905842D01*
X130318576Y-97917070D01*
X130286293Y-97940737D01*
X130258186Y-97971844D01*
X130194757Y-98038023D01*
X130113301Y-98105841D01*
X130020356Y-98170465D01*
X129922457Y-98227065D01*
X129893003Y-98241804D01*
X129797118Y-98284918D01*
X129712145Y-98315248D01*
X129629376Y-98334783D01*
X129540105Y-98345511D01*
X129435625Y-98349421D01*
X129421350Y-98349528D01*
X129347436Y-98349212D01*
X129291698Y-98346861D01*
X129246940Y-98341650D01*
X129205968Y-98332752D01*
X129163190Y-98319865D01*
X129039289Y-98267157D01*
X128932471Y-98196355D01*
X128843822Y-98108645D01*
X128774424Y-98005209D01*
X128725361Y-97887233D01*
X128708822Y-97823300D01*
X128694066Y-97701599D01*
X128703154Y-97588533D01*
X128736249Y-97483549D01*
X128793513Y-97386095D01*
X128860587Y-97309477D01*
X128899331Y-97274512D01*
X128943550Y-97241041D01*
X128995819Y-97207766D01*
X129058714Y-97173387D01*
X129134808Y-97136607D01*
X129226677Y-97096125D01*
X129336896Y-97050644D01*
X129468040Y-96998865D01*
X129503900Y-96984976D01*
X129633214Y-96934435D01*
X129741722Y-96890552D01*
X129832679Y-96851837D01*
X129909340Y-96816803D01*
X129974959Y-96783964D01*
X130032790Y-96751831D01*
X130086086Y-96718917D01*
X130086402Y-96718713D01*
X130207101Y-96626959D01*
X130312247Y-96519628D01*
X130399487Y-96400025D01*
X130466464Y-96271456D01*
X130510823Y-96137227D01*
X130515470Y-96116384D01*
X130527290Y-96035875D01*
X130533086Y-95942792D01*
X130532915Y-95846124D01*
X130526836Y-95754855D01*
X130514906Y-95677972D01*
X130512594Y-95668149D01*
X130463792Y-95523410D01*
X130393194Y-95389310D01*
X130302706Y-95267347D01*
X130194228Y-95159020D01*
X130069665Y-95065827D01*
X129930919Y-94989265D01*
X129779893Y-94930832D01*
X129618491Y-94892027D01*
X129508836Y-94878032D01*
X129418272Y-94873848D01*
X129316124Y-94874785D01*
G36*
X134725814Y-98335293D02*
G01*
X134714627Y-98349015D01*
X134706940Y-98365326D01*
X134702103Y-98388956D01*
X134699469Y-98424631D01*
X134698386Y-98477078D01*
X134698200Y-98536279D01*
X134698438Y-98605695D01*
X134699612Y-98654384D01*
X134702411Y-98687022D01*
X134707525Y-98708281D01*
X134715643Y-98722834D01*
X134727455Y-98735355D01*
X134727594Y-98735486D01*
X134756988Y-98763100D01*
X137123900Y-98763100D01*
X137123900Y-98570119D01*
X137123779Y-98496293D01*
X137122972Y-98443404D01*
X137120813Y-98406992D01*
X137116635Y-98382594D01*
X137109773Y-98365750D01*
X137099560Y-98351996D01*
X137089774Y-98341519D01*
X137055648Y-98305900D01*
X134753428Y-98305900D01*
X134725814Y-98335293D01*
G37*
X134725814Y-98335293D02*
X134714627Y-98349015D01*
X134706940Y-98365326D01*
X134702103Y-98388956D01*
X134699469Y-98424631D01*
X134698386Y-98477078D01*
X134698200Y-98536279D01*
X134698438Y-98605695D01*
X134699612Y-98654384D01*
X134702411Y-98687022D01*
X134707525Y-98708281D01*
X134715643Y-98722834D01*
X134727455Y-98735355D01*
X134727594Y-98735486D01*
X134756988Y-98763100D01*
X137123900Y-98763100D01*
X137123900Y-98570119D01*
X137123779Y-98496293D01*
X137122972Y-98443404D01*
X137120813Y-98406992D01*
X137116635Y-98382594D01*
X137109773Y-98365750D01*
X137099560Y-98351996D01*
X137089774Y-98341519D01*
X137055648Y-98305900D01*
X134753428Y-98305900D01*
X134725814Y-98335293D01*
G36*
X126311303Y-94790594D02*
G01*
X126247717Y-94794350D01*
X125422674Y-96730239D01*
X124597630Y-98666129D01*
X124621903Y-98711439D01*
X124646176Y-98756750D01*
X124887463Y-98760131D01*
X125128750Y-98763513D01*
X125718438Y-97353379D01*
X125793631Y-97173832D01*
X125866199Y-97001068D01*
X125935535Y-96836507D01*
X126001032Y-96681565D01*
X126062082Y-96537663D01*
X126118081Y-96406218D01*
X126168419Y-96288648D01*
X126212492Y-96186371D01*
X126249691Y-96100807D01*
X126279410Y-96033374D01*
X126301042Y-95985489D01*
X126313980Y-95958571D01*
X126317615Y-95952997D01*
X126323679Y-95965727D01*
X126338994Y-96000415D01*
X126362941Y-96055614D01*
X126394903Y-96129876D01*
X126434265Y-96221754D01*
X126480408Y-96329800D01*
X126532717Y-96452567D01*
X126590574Y-96588609D01*
X126653362Y-96736476D01*
X126720464Y-96894723D01*
X126791264Y-97061901D01*
X126865145Y-97236563D01*
X126917200Y-97359750D01*
X127507296Y-98756750D01*
X127986250Y-98763190D01*
X128015173Y-98718343D01*
X128044095Y-98673496D01*
X127209492Y-96730167D01*
X126374889Y-94786839D01*
X126311303Y-94790594D01*
G37*
X126311303Y-94790594D02*
X126247717Y-94794350D01*
X125422674Y-96730239D01*
X124597630Y-98666129D01*
X124621903Y-98711439D01*
X124646176Y-98756750D01*
X124887463Y-98760131D01*
X125128750Y-98763513D01*
X125718438Y-97353379D01*
X125793631Y-97173832D01*
X125866199Y-97001068D01*
X125935535Y-96836507D01*
X126001032Y-96681565D01*
X126062082Y-96537663D01*
X126118081Y-96406218D01*
X126168419Y-96288648D01*
X126212492Y-96186371D01*
X126249691Y-96100807D01*
X126279410Y-96033374D01*
X126301042Y-95985489D01*
X126313980Y-95958571D01*
X126317615Y-95952997D01*
X126323679Y-95965727D01*
X126338994Y-96000415D01*
X126362941Y-96055614D01*
X126394903Y-96129876D01*
X126434265Y-96221754D01*
X126480408Y-96329800D01*
X126532717Y-96452567D01*
X126590574Y-96588609D01*
X126653362Y-96736476D01*
X126720464Y-96894723D01*
X126791264Y-97061901D01*
X126865145Y-97236563D01*
X126917200Y-97359750D01*
X127507296Y-98756750D01*
X127986250Y-98763190D01*
X128015173Y-98718343D01*
X128044095Y-98673496D01*
X127209492Y-96730167D01*
X126374889Y-94786839D01*
X126311303Y-94790594D01*
G36*
X134822720Y-96600126D02*
G01*
X134808256Y-96614707D01*
X134798358Y-96629065D01*
X134792159Y-96648081D01*
X134788794Y-96676636D01*
X134787398Y-96719612D01*
X134787103Y-96781893D01*
X134787100Y-96800950D01*
X134787255Y-96868789D01*
X134788297Y-96916111D01*
X134791091Y-96947797D01*
X134796504Y-96968729D01*
X134805401Y-96983789D01*
X134818649Y-96997859D01*
X134822720Y-97001773D01*
X134858340Y-97035900D01*
X137042718Y-97035900D01*
X137123900Y-96952140D01*
X137123900Y-96798144D01*
X137123614Y-96732792D01*
X137122147Y-96687477D01*
X137118586Y-96656840D01*
X137112018Y-96635520D01*
X137101530Y-96618156D01*
X137091022Y-96605074D01*
X137058143Y-96566000D01*
X134858340Y-96566000D01*
X134822720Y-96600126D01*
G37*
X134822720Y-96600126D02*
X134808256Y-96614707D01*
X134798358Y-96629065D01*
X134792159Y-96648081D01*
X134788794Y-96676636D01*
X134787398Y-96719612D01*
X134787103Y-96781893D01*
X134787100Y-96800950D01*
X134787255Y-96868789D01*
X134788297Y-96916111D01*
X134791091Y-96947797D01*
X134796504Y-96968729D01*
X134805401Y-96983789D01*
X134818649Y-96997859D01*
X134822720Y-97001773D01*
X134858340Y-97035900D01*
X137042718Y-97035900D01*
X137123900Y-96952140D01*
X137123900Y-96798144D01*
X137123614Y-96732792D01*
X137122147Y-96687477D01*
X137118586Y-96656840D01*
X137112018Y-96635520D01*
X137101530Y-96618156D01*
X137091022Y-96605074D01*
X137058143Y-96566000D01*
X134858340Y-96566000D01*
X134822720Y-96600126D01*
G36*
X134725814Y-94957093D02*
G01*
X134714627Y-94970815D01*
X134706940Y-94987126D01*
X134702103Y-95010756D01*
X134699469Y-95046431D01*
X134698386Y-95098878D01*
X134698200Y-95158079D01*
X134698438Y-95227495D01*
X134699612Y-95276184D01*
X134702411Y-95308822D01*
X134707525Y-95330081D01*
X134715643Y-95344634D01*
X134727455Y-95357155D01*
X134727594Y-95357286D01*
X134756988Y-95384899D01*
X135906318Y-95384900D01*
X137055648Y-95384900D01*
X137089774Y-95349280D01*
X137104003Y-95333396D01*
X137113600Y-95317483D01*
X137119479Y-95296389D01*
X137122547Y-95264966D01*
X137123718Y-95218065D01*
X137123900Y-95156300D01*
X137123677Y-95090458D01*
X137122398Y-95044866D01*
X137119154Y-95014375D01*
X137113034Y-94993836D01*
X137103128Y-94978100D01*
X137089774Y-94963319D01*
X137055648Y-94927700D01*
X134753428Y-94927700D01*
X134725814Y-94957093D01*
G37*
X134725814Y-94957093D02*
X134714627Y-94970815D01*
X134706940Y-94987126D01*
X134702103Y-95010756D01*
X134699469Y-95046431D01*
X134698386Y-95098878D01*
X134698200Y-95158079D01*
X134698438Y-95227495D01*
X134699612Y-95276184D01*
X134702411Y-95308822D01*
X134707525Y-95330081D01*
X134715643Y-95344634D01*
X134727455Y-95357155D01*
X134727594Y-95357286D01*
X134756988Y-95384899D01*
X135906318Y-95384900D01*
X137055648Y-95384900D01*
X137089774Y-95349280D01*
X137104003Y-95333396D01*
X137113600Y-95317483D01*
X137119479Y-95296389D01*
X137122547Y-95264966D01*
X137123718Y-95218065D01*
X137123900Y-95156300D01*
X137123677Y-95090458D01*
X137122398Y-95044866D01*
X137119154Y-95014375D01*
X137113034Y-94993836D01*
X137103128Y-94978100D01*
X137089774Y-94963319D01*
X137055648Y-94927700D01*
X134753428Y-94927700D01*
X134725814Y-94957093D01*
G04 #@! TD*
M02*
