M48
; DRILL file {KiCad (5.1.9)-1} date 10/12/21 17:07:10
; FORMAT={-:-/ absolute / inch / decimal}
; #@! TF.CreationDate,2021-10-12T17:07:10+02:00
; #@! TF.GenerationSoftware,Kicad,Pcbnew,(5.1.9)-1
; #@! TF.FileFunction,Plated,1,2,PTH
FMAT,2
INCH
T1C0.0551
T2C0.0709
%
G90
G05
T1
X4.0464Y-4.0149
X4.1901Y-4.0149
X4.3469Y-3.5712
X4.4906Y-3.5712
X4.6464Y-4.0149
X4.7901Y-4.0149
X4.9469Y-3.5712
X5.0906Y-3.5712
X5.2527Y-4.0149
X5.3964Y-4.0149
X5.5532Y-3.5712
X5.6969Y-3.5712
X5.8527Y-4.0149
X5.9964Y-4.0149
X6.1532Y-3.5712
X6.2969Y-3.5712
T2
X4.0464Y-4.3681
X4.0469Y-3.2252
X4.1964Y-4.3681
X4.1969Y-3.2252
X4.3464Y-4.3681
X4.3469Y-3.2252
X4.4964Y-4.3681
X4.4969Y-3.2252
X4.6464Y-4.3681
X4.6469Y-3.2252
X4.7964Y-4.3681
X4.7969Y-3.2252
X4.9464Y-4.3681
X4.9469Y-3.2252
X5.0964Y-4.3681
X5.0969Y-3.2252
X5.2464Y-4.3681
X5.2469Y-3.2252
X5.3964Y-4.3681
X5.3969Y-3.2252
X5.5464Y-4.3681
X5.5469Y-3.2252
X5.6964Y-4.3681
X5.6969Y-3.2252
X5.8464Y-4.3681
X5.8469Y-3.2252
X5.9964Y-4.3681
X5.9969Y-3.2252
X6.1464Y-4.3681
X6.1469Y-3.2252
X6.2964Y-4.3681
X6.2969Y-3.2252
T0
M30
